<svg height='100px' width='100px'  fill="#ffffff" xmlns="http://www.w3.org/2000/svg" xmlns:xlink="http://www.w3.org/1999/xlink" version="1.1" x="0px" y="0px" viewBox="0 0 96 96" enable-background="new 0 0 96 96" xml:space="preserve"><g><path d="M48,7.348c-15.958,0-28.941,12.983-28.941,28.941c0,15.702,27.384,50.4,28.55,51.869L48,88.652l0.392-0.494   c1.166-1.469,28.55-36.167,28.55-51.869C76.941,20.331,63.958,7.348,48,7.348z M48,87.037c-3.419-4.392-27.941-36.39-27.941-50.748   C20.059,20.882,32.593,8.348,48,8.348c15.407,0,27.941,12.534,27.941,27.941C75.941,50.646,51.42,82.646,48,87.037z"></path><path d="M48,21.319c-8.254,0-14.97,6.715-14.97,14.97c0,8.254,6.715,14.97,14.97,14.97c8.254,0,14.97-6.716,14.97-14.97   C62.97,28.034,56.254,21.319,48,21.319z M48,50.259c-7.703,0-13.97-6.267-13.97-13.97s6.267-13.97,13.97-13.97   s13.97,6.267,13.97,13.97S55.703,50.259,48,50.259z"></path><polygon points="48.5,29.289 47.5,29.289 47.5,35.789 41,35.789 41,36.789 47.5,36.789 47.5,43.289 48.5,43.289 48.5,36.789    55,36.789 55,35.789 48.5,35.789  "></polygon></g></svg>