<svg height='100px' width='100px'  fill="#ffffff" xmlns="http://www.w3.org/2000/svg" xmlns:xlink="http://www.w3.org/1999/xlink" version="1.1" x="0px" y="0px" viewBox="0 0 100 100" enable-background="new 0 0 50 50" xml:space="preserve"><g><path d="M50,9.375c-17.121,0-31.05,13.929-31.05,31.05c0,16.317,28.729,48.355,29.952,49.711c0.281,0.31,0.68,0.488,1.098,0.488   s0.817-0.178,1.098-0.488C52.321,88.78,81.05,56.742,81.05,40.425C81.05,23.304,67.121,9.375,50,9.375z M50,86.911   c-5.317-6.096-28.093-32.999-28.093-46.485c0-15.49,12.603-28.093,28.093-28.093s28.093,12.603,28.093,28.093   C78.093,53.908,55.317,80.814,50,86.911z"></path><path d="M50,20.711c-10.236,0-18.564,8.328-18.564,18.564S39.764,57.84,50,57.84s18.565-8.328,18.565-18.564   S60.236,20.711,50,20.711z M50,54.883c-8.606,0-15.607-7.002-15.607-15.607S41.394,23.668,50,23.668s15.608,7.002,15.608,15.607   S58.606,54.883,50,54.883z"></path><path d="M51.479,37.797v-8.871c0-0.817-0.662-1.479-1.479-1.479s-1.479,0.662-1.479,1.479v8.871H39.65   c-0.816,0-1.479,0.662-1.479,1.479s0.662,1.479,1.479,1.479h8.871v8.871c0,0.817,0.662,1.479,1.479,1.479s1.479-0.662,1.479-1.479   v-8.871h8.871c0.816,0,1.479-0.662,1.479-1.479s-0.662-1.479-1.479-1.479H51.479z"></path></g></svg>