<svg fill="#FFFFFF" xmlns:dc="http://purl.org/dc/elements/1.1/" xmlns:cc="http://creativecommons.org/ns#" xmlns:rdf="http://www.w3.org/1999/02/22-rdf-syntax-ns#" xmlns:svg="http://www.w3.org/2000/svg" xmlns="http://www.w3.org/2000/svg" xmlns:sodipodi="http://sodipodi.sourceforge.net/DTD/sodipodi-0.dtd" xmlns:inkscape="http://www.inkscape.org/namespaces/inkscape" version="1.1" x="0px" y="0px" viewBox="0 0 100 100"><g transform="translate(0,-952.36218)"><path style="font-size:medium;font-style:normal;font-variant:normal;font-weight:normal;font-stretch:normal;text-indent:0;text-align:start;text-decoration:none;line-height:normal;letter-spacing:normal;word-spacing:normal;text-transform:none;direction:ltr;block-progression:tb;writing-mode:lr-tb;text-anchor:start;baseline-shift:baseline;opacity:1;color:#000000;fill:#FFFFFF;fill-opacity:1;stroke:none;stroke-width:1.99999964000000000;marker:none;visibility:visible;display:inline;overflow:visible;enable-background:accumulate;font-family:Sans;-inkscape-font-specification:Sans" d="M 50 7 C 26.263601 7 7 26.26358 7 50 C 7 73.7364 26.263601 93 50 93 C 73.736404 93 93 73.7364 93 50 C 93 26.26358 73.736404 7 50 7 z M 50 9 C 72.655522 9 91 27.34446 91 50 C 91 61.209636 86.503742 71.348139 79.21875 78.75 C 73.707369 67.6178 62.703308 60 50 60 C 37.296695 60 26.292632 67.6178 20.78125 78.75 C 13.496258 71.348139 9 61.209636 9 50 C 9 27.34446 27.344481 9 50 9 z M 50 19 C 40.086616 19 32 26.83049 32 36.5 C 32 46.16955 40.086615 54 50 54 C 59.913386 54 68 46.16955 68 36.5 C 68 26.83049 59.913385 19 50 19 z M 50 21 C 58.864297 21 66 27.94413 66 36.5 C 66 45.05593 58.864296 52 50 52 C 41.135705 52 34 45.05593 34 36.5 C 34 27.94413 41.135704 21 50 21 z M 50 62 C 62.121996 62 72.61718 69.397363 77.71875 80.21875 C 70.417979 86.925117 60.698402 91 50 91 C 39.301599 91 29.582021 86.925117 22.28125 80.21875 C 27.382821 69.397363 37.878007 62 50 62 z " transform="translate(0,952.36218)"></path></g></svg>