<svg height='100px' width='100px'  fill="#ffffff" xmlns="http://www.w3.org/2000/svg" data-name="Layer 1" viewBox="0 0 500 500" x="0px" y="0px"><title>Fine line</title><path d="M52,246.4c-.05.24-.09.48-.12.73s-.07.48-.09.72,0,.48,0,.73,0,.48,0,.72.06.48.09.72.07.49.13.73.12.46.19.68.15.49.24.73c0,.08,0,.16.08.24.11.27.24.54.38.8l.08.14a10,10,0,0,0,.71,1.12l.09.11a10,10,0,0,0,.89,1l0,0,190,189a10,10,0,1,0,14.11-14.18L86,258.54H438.27a10,10,0,1,0,0-20H85.68L256.18,66.12A10,10,0,1,0,242,52.06L54.62,241.51l0,0a10,10,0,0,0-.89,1l-.07.09a10,10,0,0,0-.71,1.14l-.07.12c-.13.25-.26.51-.37.78,0,.08-.05.17-.08.25-.09.24-.17.49-.24.74S52,246.17,52,246.4Z"></path></svg>