<svg fill="#FFFFFF" xmlns="http://www.w3.org/2000/svg" data-name="Layer 1" viewBox="0 0 100 100" x="0px" y="0px"><title>14</title><g data-name="Group"><path data-name="Path" d="M61.15,48.19a1,1,0,0,0-1,1V72.3a1,1,0,0,0,2,0V49.19A1,1,0,0,0,61.15,48.19Z"></path><path data-name="Path" d="M38.85,48.19a1,1,0,0,0-1,1V72.3a1,1,0,0,0,2,0V49.19A1,1,0,0,0,38.85,48.19Z"></path><path data-name="Path" d="M50,48.19a1,1,0,0,0-1,1V72.3a1,1,0,0,0,2,0V49.19A1,1,0,0,0,50,48.19Z"></path><path data-name="Compound Path" d="M55.46,11.28H44.54a5,5,0,0,0-5,5v4.46H27.85a3,3,0,0,0-3,3v54a11,11,0,0,0,11,11h28.3a11,11,0,0,0,11-11v-54a3,3,0,0,0-3-3H60.46V16.28A5,5,0,0,0,55.46,11.28Zm-13.91,5a3,3,0,0,1,3-3H55.46a3,3,0,0,1,3,3v4.46H41.54Zm22.6,70.45H35.85a9,9,0,0,1-9-9V35.5h46.3V77.72A9,9,0,0,1,64.15,86.72Zm9-63V33.5H26.85V23.74a1,1,0,0,1,1-1h44.3A1,1,0,0,1,73.15,23.74Z"></path></g></svg>