<svg height='100px' width='100px'  fill="#ffffff" xmlns="http://www.w3.org/2000/svg" xmlns:xlink="http://www.w3.org/1999/xlink" version="1.1" x="0px" y="0px" viewBox="0 0 100 100" enable-background="new 0 0 100 100" xml:space="preserve"><path d="M48.7,40.8l4.6-6.3c0,0,0.1-0.1,0.1-0.1c2.6-3.1,6.3-4.9,10.3-4.9l8.3,0l-4.4-4.3c-0.9-0.9-0.9-2.3,0-3.2  c0.9-0.9,2.3-0.9,3.2,0l8.3,8.1c0.4,0.4,0.7,1,0.7,1.6s-0.2,1.2-0.7,1.6l-8.3,8.1c-0.4,0.4-1,0.6-1.6,0.6c-0.6,0-1.2-0.2-1.6-0.7  c-0.9-0.9-0.9-2.3,0-3.2L72,34l-8.3,0c-2.6,0-5.1,1.2-6.8,3.2l-4.6,6.3c-0.4,0.6-1.1,0.9-1.8,0.9c-0.5,0-0.9-0.1-1.3-0.4  C48.2,43.2,48,41.8,48.7,40.8z M22.5,52.2l16.6,0c2.9,0,5.6,1.4,7.3,3.8l6.9,9.5c0,0,0.1,0.1,0.1,0.1c2.6,3.1,6.3,4.9,10.3,4.9  l8.3,0l-4.4,4.3c-0.9,0.9-0.9,2.3,0,3.2c0.4,0.4,1,0.7,1.6,0.7c0.6,0,1.1-0.2,1.6-0.6l8.3-8.1c0.4-0.4,0.7-1,0.7-1.6  c0-0.6-0.2-1.2-0.7-1.6l-8.3-8.1c-0.9-0.9-2.3-0.9-3.2,0c-0.9,0.9-0.9,2.3,0,3.2L72,66h-7.9l-0.4,0c-2.6,0-5.1-1.2-6.8-3.2L52.6,57  L50,53.4c-2.5-3.6-6.6-5.7-10.9-5.7H22.5c-1.2,0-2.2,1-2.2,2.2C20.3,51.2,21.3,52.2,22.5,52.2z"></path></svg>