<svg fill="#FFFFFF" xmlns:dc="http://purl.org/dc/elements/1.1/" xmlns:cc="http://creativecommons.org/ns#" xmlns:rdf="http://www.w3.org/1999/02/22-rdf-syntax-ns#" xmlns:svg="http://www.w3.org/2000/svg" xmlns="http://www.w3.org/2000/svg" xmlns:sodipodi="http://sodipodi.sourceforge.net/DTD/sodipodi-0.dtd" xmlns:inkscape="http://www.inkscape.org/namespaces/inkscape" version="1.1" x="0px" y="0px" viewBox="0 0 100 100"><g transform="translate(0,-952.36218)"><path style="font-size:medium;font-style:normal;font-variant:normal;font-weight:normal;font-stretch:normal;text-indent:0;text-align:start;text-decoration:none;line-height:normal;letter-spacing:normal;word-spacing:normal;text-transform:none;direction:ltr;block-progression:tb;writing-mode:lr-tb;text-anchor:start;baseline-shift:baseline;opacity:1;color:#000000;fill:#FFFFFF;fill-opacity:1;stroke:none;stroke-width:1.66666651000000000;marker:none;visibility:visible;display:inline;overflow:visible;enable-background:accumulate;font-family:Sans;-inkscape-font-specification:Sans" d="M 50 7 C 26.2636 7 7 26.26358 7 50 C 7 73.7364 26.2636 93 50 93 C 73.7364 93 93 73.7364 93 50 C 93 26.26358 73.7364 7 50 7 z M 50 9 C 72.65552 9 91 27.34446 91 50 C 91 72.6555 72.65552 91 50 91 C 27.34448 91 9 72.6555 9 50 C 9 27.34446 27.34448 9 50 9 z M 50 17 C 31.786447 17 17 31.78642 17 50 C 17 68.2135 31.786447 83 50 83 C 68.213553 83 83 68.2135 83 50 C 83 31.78642 68.213553 17 50 17 z M 50 19 C 67.132672 19 81 32.8673 81 50 C 81 67.1326 67.132672 81 50 81 C 32.867328 81 19 67.1326 19 50 C 19 32.8673 32.867328 19 50 19 z M 68.875 29.90625 A 1.0000998 1.0000998 0 0 0 68.53125 30.0625 L 45.90625 45.625 A 1.0000998 1.0000998 0 0 0 45.625 45.875 L 30.09375 68.5 A 1.0000998 1.0000998 0 0 0 31.46875 69.90625 L 54.09375 54.34375 A 1.0000998 1.0000998 0 0 0 54.375 54.09375 L 69.90625 31.46875 A 1.0000998 1.0000998 0 0 0 68.875 29.90625 z M 65.25 34.75 L 52.875 52.75 L 34.78125 65.1875 L 47.1875 47.1875 L 65.25 34.75 z " transform="translate(0,952.36218)"></path></g></svg>