<?xml version="1.0" encoding="iso-8859-1"?>
<!-- Generator: Adobe Illustrator 19.0.0, SVG Export Plug-In . SVG Version: 6.00 Build 0)  -->
<svg version="1.1" id="Layer_1" xmlns="http://www.w3.org/2000/svg" xmlns:xlink="http://www.w3.org/1999/xlink" x="0px" y="0px"
	 viewBox="0 0 512 512" style="enable-background:new 0 0 512 512;" xml:space="preserve">
<path style="fill:#FFD664;" d="M130.017,442.5c-45.729,0-84.67-33.226-91.884-78.263C26.609,292.3,20.215,265.03,24.008,217.677
	l4.304-53.725C32.579,110.646,77.12,69.5,130.734,69.5c66.413,0,115.434,61.988,99.914,126.588
	c-15.68,65.283-13.022,81.789-7.874,146.051C227.101,396.17,184.278,442.5,130.017,442.5z"/>
<path style="fill:#FFBB54;" d="M128.224,69.53v372.93c0.598,0.011,1.192,0.041,1.793,0.041c54.261,0,97.084-46.33,92.757-100.361
	c-5.148-64.262-7.806-80.767,7.874-146.051C246.392,130.556,195.744,67.907,128.224,69.53z"/>
<path style="fill:#475BA3;" d="M233.021,214.498l-87.826-60.29l2.487-14.396c1.409-8.155-4.067-15.906-12.23-17.312
	c-8.17-1.412-15.924,4.063-17.332,12.217l-2.859,16.548L8.066,207.115c-7.345,3.828-10.193,12.877-6.362,20.214
	c3.832,7.336,12.891,10.183,20.237,6.355l105.778-55.113l88.31,60.623c6.828,4.685,16.166,2.958,20.858-3.862
	C241.578,228.512,239.848,219.185,233.021,214.498z"/>
<path style="fill:#404F94;" d="M233.021,214.498l-87.826-60.29l2.487-14.396c1.409-8.155-4.067-15.906-12.23-17.312
	c-2.506-0.433-4.971-0.213-7.227,0.529v55.891l87.805,60.276c6.828,4.685,16.166,2.958,20.858-3.862
	C241.578,228.512,239.848,219.185,233.021,214.498z"/>
<path style="fill:#FFD664;" d="M289.226,342.139c5.148-64.262,7.806-80.767-7.874-146.051
	c-15.52-64.6,33.501-126.588,99.914-126.588c53.614,0,98.155,41.146,102.423,94.451l4.304,53.725
	c3.792,47.353-2.602,74.624-14.126,146.561c-7.214,45.037-46.154,78.263-91.884,78.263
	C327.722,442.5,284.899,396.17,289.226,342.139z"/>
<path style="fill:#FFBB54;" d="M487.992,217.677l-4.304-53.725c-4.201-52.471-47.425-93.16-99.913-94.421V442.46
	c44.949-0.858,82.972-33.777,90.091-78.222C485.391,292.3,491.785,265.03,487.992,217.677z"/>
<path style="fill:#475BA3;" d="M278.979,214.498l87.826-60.29l-2.487-14.396c-1.409-8.155,4.067-15.906,12.23-17.312
	c8.17-1.412,15.924,4.063,17.332,12.217l2.859,16.548l107.196,55.852c7.345,3.828,10.193,12.877,6.362,20.214
	c-3.832,7.336-12.891,10.183-20.237,6.355l-105.778-55.113l-88.31,60.623c-6.828,4.685-16.166,2.958-20.858-3.862
	C270.422,228.512,272.152,219.185,278.979,214.498z"/>
<path style="fill:#404F94;" d="M503.934,207.115l-107.196-55.852l-2.859-16.548c-0.976-5.653-5.004-10.012-10.104-11.688v55.891
	l0.506-0.347l105.778,55.113c7.346,3.828,16.405,0.981,20.237-6.355C514.128,219.992,511.279,210.943,503.934,207.115z"/>
<g>
</g>
<g>
</g>
<g>
</g>
<g>
</g>
<g>
</g>
<g>
</g>
<g>
</g>
<g>
</g>
<g>
</g>
<g>
</g>
<g>
</g>
<g>
</g>
<g>
</g>
<g>
</g>
<g>
</g>
</svg>
