<svg height='100px' width='100px'  fill="#ffffff" xmlns="http://www.w3.org/2000/svg" xmlns:xlink="http://www.w3.org/1999/xlink" xml:space="preserve" version="1.1" style="shape-rendering:geometricPrecision;text-rendering:geometricPrecision;image-rendering:optimizeQuality;" viewBox="0 0 100 100" x="0px" y="0px" fill-rule="evenodd" clip-rule="evenodd"><defs><style type="text/css">
   
    .fil0 {fill:#ffffff;fill-rule:nonzero}
   
  </style></defs><g><path class="fil0" d="M18.58 72.67l67.69 0 -16.62 -16.63c-1.56,-1.55 0.8,-3.91 2.35,-2.35l19.45 19.44c0.73,0.71 0.64,1.8 0,2.42l-19.45 19.44c-1.55,1.55 -3.91,-0.81 -2.35,-2.36l16.62 -16.62 -67.68 0c-5.8,0 -10.55,-4.75 -10.55,-10.55l0 -50.42c0,-5.79 4.75,-10.54 10.54,-10.54l62.84 0c5.77,0 10.54,4.77 10.54,10.54l0 41.51c0,2.2 -3.33,2.2 -3.33,0l0 -29.82 -29.49 17.98c-5.78,3.52 -12.66,3.46 -18.46,0.01l-29.31 -17.34 0 38.08c0,3.95 3.26,7.21 7.21,7.21zm70.05 -49.84l0 -7.79c0,-3.94 -3.28,-7.21 -7.21,-7.21l-62.84 0c-3.96,0 -7.21,3.25 -7.21,7.21l0 8.47 31 18.35c4.72,2.82 10.33,2.88 15.04,0.01l31.22 -19.04z"></path></g></svg>