<svg height="512" viewBox="0 0 512 512" width="512" xmlns="http://www.w3.org/2000/svg"><g id="flat"><path d="m344 248-2.749.5a476.588 476.588 0 0 1 -170.5 0l-2.751-.5v-24h176z" fill="#e4e4e2"/><path d="m152 448a8 8 0 0 1 -8-8v-88a8 8 0 0 1 16 0v88a8 8 0 0 1 -8 8z" fill="#cbcbcb"/><circle cx="152" cy="464" fill="#e4e4e2" r="24"/><path d="m360 448a8 8 0 0 1 -8-8v-88a8 8 0 0 1 16 0v88a8 8 0 0 1 -8 8z" fill="#cbcbcb"/><circle cx="360" cy="464" fill="#e4e4e2" r="24"/><path d="m136 224 8-7 32 7-7.088 120.5a16.47 16.47 0 0 1 -16.442 15.5 16.47 16.47 0 0 1 -16.47-16.47z" fill="#a83b32"/><path d="m376 224-32-5-8 5 7.088 120.5a16.47 16.47 0 0 0 16.442 15.5 16.47 16.47 0 0 0 16.47-16.47z" fill="#a83b32"/><circle cx="256" cy="72" fill="#e4e4e2" r="48"/><path d="m256 96a120 120 0 0 1 120 120v8a0 0 0 0 1 0 0h-240a0 0 0 0 1 0 0v-8a120 120 0 0 1 120-120z" fill="#dc4d41"/><path d="m278.634 72a8 8 0 0 1 -7.543-5.336 16.009 16.009 0 0 0 -30.182 0 8 8 0 0 1 -15.086-5.332 32.01 32.01 0 0 1 60.354 0 8 8 0 0 1 -7.543 10.668z" fill="#dbdbdb"/><g fill="#a83b32"><path d="m266.343 165.657a8 8 0 1 0 11.314-11.314l-16-16a8 8 0 0 0 -11.314 0l-16 16a8 8 0 0 0 11.314 11.314l2.343-2.344v1.374l-13.657 13.656a8 8 0 0 0 11.314 11.314l2.343-2.344v12.687a8 8 0 0 0 16 0v-12.687l2.343 2.344a8 8 0 1 0 11.314-11.314l-13.657-13.656v-1.374z"/><path d="m320 164.687v-1.374l2.343 2.344a8 8 0 1 0 11.314-11.314l-16-16a8 8 0 0 0 -11.314 0l-16 16a8 8 0 0 0 11.314 11.314l2.343-2.344v1.374l-13.657 13.656a8 8 0 0 0 11.314 11.314l2.343-2.344v12.687a8 8 0 0 0 16 0v-12.687l2.343 2.344a8 8 0 1 0 11.314-11.314z"/><path d="m210.343 165.657a8 8 0 0 0 11.314-11.314l-16-16a8 8 0 0 0 -11.314 0l-16 16a8 8 0 0 0 11.314 11.314l2.343-2.344v1.374l-13.657 13.656a8 8 0 0 0 11.314 11.314l2.343-2.344v12.687a8 8 0 0 0 16 0v-12.687l2.343 2.344a8 8 0 0 0 11.314-11.314l-13.657-13.656v-1.374z"/></g></g></svg>