<svg height="512pt" viewBox="-61 0 512 512" width="512pt" xmlns="http://www.w3.org/2000/svg"><path d="m15 376h30v91h-30zm0 0" fill="#ff4b00"/><path d="m345 376h30v91h-30zm0 0" fill="#dd3400"/><path d="m255 60c0 9-2.101562 18-6 26.101562l-54 .296876h-54c-3.898438-8.398438-6-17.097657-6-26.398438 0-33 27-60 60-60s60 27 60 60zm0 0" fill="#ff4b00"/><path d="m249 86.101562-54 .296876v-86.398438c33 0 60 27 60 60 0 9-2.101562 18-6 26.101562zm0 0" fill="#dd3400"/><path d="m390 256v105c0 16.5-13.5 30-30 30s-30-13.5-30-30v-60h-270v60c0 16.5-13.5 30-30 30s-30-13.5-30-30v-105c0-7.800781.601562-15.601562 1.5-23.101562 1.199219-9 17.699219-18 20.097656-26.699219 2.101563-8.699219-9.898437-17.101563-6.597656-25.199219 29.398438-70.5 99-121 180-121s150.601562 50.5 180 121c3 6.898438-9.601562 14.097656-7.5 21.597656 2.699219 9.902344 19.800781 19.800782 21 30.300782.898438 7.5 1.5 15.300781 1.5 23.101562zm0 0" fill="#ff9f00"/><path d="m390 256v105c0 16.5-13.5 30-30 30s-30-13.5-30-30v-60h-135v-241c81 0 150.601562 50.5 180 121 3 6.898438-9.601562 14.097656-7.5 21.597656 2.699219 9.902344 19.800781 19.800782 21 30.300782.898438 7.5 1.5 15.300781 1.5 23.101562zm0 0" fill="#ff7816"/><path d="m135 114.789062 21.210938 21.210938-21.210938 21.210938-21.210938-21.210938zm0 0" fill="#ff4b00"/><path d="m173.695312 135.988281 21.296876-21.296875 21.300781 21.296875-21.300781 21.300781zm0 0" fill="#ff4b00"/><path d="m255 114.785156 21.210938 21.210938-21.210938 21.210937-21.210938-21.210937zm0 0" fill="#dd3400"/><path d="m30 512c-16.570312 0-30-13.429688-30-30s13.429688-30 30-30 30 13.429688 30 30-13.429688 30-30 30zm0 0" fill="#ff9f00"/><path d="m360 512c-16.570312 0-30-13.429688-30-30s13.429688-30 30-30 30 13.429688 30 30-13.429688 30-30 30zm0 0" fill="#ff7816"/><path d="m388.5 232.898438c-4.199219-3-9-7.199219-13.5-12.597657-10.5 12.296875-22.5 18.597657-23.402344 19.199219l-6.597656 3.300781-6.597656-3.300781c-.902344-.601562-12.902344-6.902344-23.402344-19.199219-10.5 12.296875-22.5 18.597657-23.402344 19.199219l-6.597656 3.300781-6.597656-3.300781c-.902344-.601562-12.902344-6.902344-23.402344-19.199219-10.5 12.296875-22.5 18.597657-23.402344 19.199219l-6.597656 3.300781-6.597656-3.300781c-.902344-.601562-12.902344-6.902344-23.402344-19.199219-10.5 12.296875-22.5 18.597657-23.402344 19.199219l-6.597656 3.300781-6.597656-3.300781c-.902344-.601562-12.902344-6.902344-23.402344-19.199219-10.5 12.296875-22.5 18.597657-23.402344 19.199219l-6.597656 3.300781-6.597656-3.300781c-.902344-.601562-12.902344-6.902344-23.402344-19.199219-10.5 12.296875-22.5 18.597657-23.402344 19.199219l-6.597656 3.300781-6.597656-3.300781c-.902344-.601562-12.902344-6.902344-23.402344-19.199219-4.5 5.398438-9.300781 9.597657-13.5 12.597657 2.101562-18.300782 6.601562-35.699219 13.5-51.898438h15c0 12.597656 8.699219 21.898438 15 27 6.300781-5.101562 15-14.398438 15-27h30c0 12.597656 8.699219 21.898438 15 27 6.300781-5.101562 15-14.398438 15-27h30c0 12.597656 8.699219 21.898438 15 27 6.300781-5.101562 15-14.398438 15-27h30c0 12.597656 8.699219 21.898438 15 27 6.300781-5.101562 15-14.398438 15-27h30c0 12.597656 8.699219 21.898438 15 27 6.300781-5.101562 15-14.398438 15-27h30c0 12.597656 8.699219 21.898438 15 27 6.300781-5.101562 15-14.398438 15-27h15c6.898438 16.199219 11.398438 33.601562 13.5 51.898438zm0 0" fill="#ff4b00"/><g fill="#dd3400"><path d="m216.300781 136-21.300781 21.300781v-42.601562zm0 0"/><path d="m388.5 232.898438c-4.199219-3-9-7.199219-13.5-12.597657-10.5 12.296875-22.5 18.597657-23.402344 19.199219l-6.597656 3.300781-6.597656-3.300781c-.902344-.601562-12.902344-6.902344-23.402344-19.199219-10.5 12.296875-22.5 18.597657-23.402344 19.199219l-6.597656 3.300781-6.597656-3.300781c-.902344-.601562-12.902344-6.902344-23.402344-19.199219-10.5 12.296875-22.5 18.597657-23.402344 19.199219l-6.597656 3.300781-6.597656-3.300781c-.902344-.601562-12.902344-6.902344-23.402344-19.199219v-39.300781h15c0 12.597656 8.699219 21.898438 15 27 6.300781-5.101562 15-14.398438 15-27h30c0 12.597656 8.699219 21.898438 15 27 6.300781-5.101562 15-14.398438 15-27h30c0 12.597656 8.699219 21.898438 15 27 6.300781-5.101562 15-14.398438 15-27h15c6.898438 16.199219 11.398438 33.601562 13.5 51.898438zm0 0"/></g></svg>