<svg fill="#888888" xmlns:dc="http://purl.org/dc/elements/1.1/" xmlns:cc="http://creativecommons.org/ns#" xmlns:rdf="http://www.w3.org/1999/02/22-rdf-syntax-ns#" xmlns:svg="http://www.w3.org/2000/svg" xmlns="http://www.w3.org/2000/svg" xmlns:sodipodi="http://sodipodi.sourceforge.net/DTD/sodipodi-0.dtd" xmlns:inkscape="http://www.inkscape.org/namespaces/inkscape" version="1.1" x="0px" y="0px" viewBox="0 0 100 100"><g transform="translate(0,-952.36218)"><path style="font-size:medium;font-style:normal;font-variant:normal;font-weight:normal;font-stretch:normal;text-indent:0;text-align:start;text-decoration:none;line-height:normal;letter-spacing:normal;word-spacing:normal;text-transform:none;direction:ltr;block-progression:tb;writing-mode:lr-tb;text-anchor:start;baseline-shift:baseline;opacity:1;color:#000000;fill:#888888;fill-opacity:1;stroke:none;stroke-width:2;marker:none;visibility:visible;display:inline;overflow:visible;enable-background:accumulate;font-family:Sans;-inkscape-font-specification:Sans" d="M 22.875 13.96875 A 1.0001 1.0001 0 0 0 22 15 L 22 22 L 12 22 C 9.2472987 22 7 24.2473 7 27 L 7 81 C 7 83.7527 9.2472987 86 12 86 L 88 86 C 90.752701 86 93 83.7527 93 81 L 93 27 C 93 24.2473 90.752701 22 88 22 L 78 22 L 78 15 A 1.0001 1.0001 0 0 0 76.875 13.96875 A 1.0001 1.0001 0 0 0 76 15 L 76 22 L 24 22 L 24 15 A 1.0001 1.0001 0 0 0 22.875 13.96875 z M 12 24 L 22 24 L 22 29 A 1.0001 1.0001 0 1 0 24 29 L 24 24 L 76 24 L 76 29 A 1.0001 1.0001 0 1 0 78 29 L 78 24 L 88 24 C 89.679296 24 91 25.3207 91 27 L 91 81 C 91 82.6793 89.679296 84 88 84 L 12 84 C 10.320704 84 9 82.6793 9 81 L 9 27 C 9 25.3207 10.320704 24 12 24 z M 66.90625 31.96875 A 1.0001 1.0001 0 0 0 66.375 33.75 L 70.40625 37.09375 C 46.914938 38.719332 30.578133 53.429574 26.03125 74.78125 A 1.0001 1.0001 0 1 0 27.96875 75.1875 C 32.32646 54.724126 47.586553 40.827157 70.09375 39.125 L 66.375 42.21875 A 1.0001 1.0001 0 1 0 67.625 43.75 L 73.625 38.75 A 1.0001 1.0001 0 0 0 73.625 37.21875 L 67.625 32.21875 A 1.0001 1.0001 0 0 0 66.90625 31.96875 z M 32 32 C 28.698135 32 26 34.69814 26 38 C 26 41.30187 28.698135 44 32 44 C 35.301865 44 38 41.30187 38 38 C 38 34.69814 35.301865 32 32 32 z M 32 34 C 34.220985 34 36 35.77902 36 38 C 36 40.22099 34.220985 42 32 42 C 29.779015 42 28 40.22099 28 38 C 28 35.77902 29.779015 34 32 34 z M 64 49 C 60.698135 49 58 51.6981 58 55 C 58 58.3018 60.698135 61 64 61 C 67.301865 61 70 58.3018 70 55 C 70 51.6981 67.301865 49 64 49 z M 64 51 C 66.220985 51 68 52.779 68 55 C 68 57.221 66.220985 59 64 59 C 61.779015 59 60 57.221 60 55 C 60 52.779 61.779015 51 64 51 z M 39.875 63.96875 A 1.0001 1.0001 0 0 0 39.28125 65.6875 L 43.5625 70 L 39.28125 74.28125 A 1.0054956 1.0054956 0 1 0 40.71875 75.6875 L 45 71.40625 L 49.28125 75.6875 A 1.0054956 1.0054956 0 0 0 50.71875 74.28125 L 46.4375 70 L 50.71875 65.6875 A 1.0001 1.0001 0 0 0 49.96875 63.96875 A 1.0001 1.0001 0 0 0 49.28125 64.28125 L 45 68.5625 L 40.71875 64.28125 A 1.0001 1.0001 0 0 0 39.875 63.96875 z " transform="translate(0,952.36218)"></path></g></svg>