<svg height="512" viewBox="0 0 512 512" width="512" xmlns="http://www.w3.org/2000/svg"><g id="flat"><path d="m152 400.98h208v32h-208z" fill="#6b9777"/><g fill="#628b6e"><path d="m224 400.981h64v32h-64z"/><path d="m208 400.98v32h-16v-32a8 8 0 0 1 16 0z"/><path d="m184 400.98v32h-16v-32a8 8 0 0 1 16 0z"/><path d="m320 400.98v32h-16v-32a8 8 0 0 1 16 0z"/><path d="m344 400.98v32h-16v-32a8 8 0 0 1 16 0z"/></g><path d="m136 320.98-3.08 7.39-.74 1.79-6.08 14.59-30.1 72.23-56-16-6.88-20.63a111.352 111.352 0 0 1 -3.8-55.73l.79-4.25a455.559 455.559 0 0 1 73.13-175.18l16.76-24.21 15.02 187.7z" fill="#6b9777"/><path d="m478.88 380.35-6.88 20.63-56 16-30.1-72.23-6.08-14.59-.74-1.79-3.08-7.39.98-12.3 15.02-187.7 16.76 24.21a455.163 455.163 0 0 1 73.13 175.18l.79 4.25a111.352 111.352 0 0 1 -3.8 55.73z" fill="#6b9777"/><path d="m392 121.11v52.79a757.881 757.881 0 0 1 -18.05 164.44l-13.95 62.77h-208l-13.95-62.77a757.881 757.881 0 0 1 -18.05-164.44v-52.79l65.03-37.94 30.97-18.06h80l30.97 18.06z" fill="#76a683"/><path d="m256 144.98a64.728 64.728 0 0 1 -57.89-35.78l-13.08-26.16 30.97-18.06z" fill="#628b6e"/><path d="m326.97 83.17-13.08 26.17a64.743 64.743 0 0 1 -57.89 35.77l40-80z" fill="#628b6e"/><path d="m280 96.981h-48l24 48z" fill="#fd9226"/><path d="m248 144h16v256.981h-16z" fill="#628b6e"/><path d="m35.72 434.044 48.3 13.8a4 4 0 0 0 4.98-2.875l7-27.988-56-16-7.062 28.247a4 4 0 0 0 2.782 4.816z" fill="#628b6e"/><path d="m312 272.981 40 48-16 16-32-16-8-32z" fill="#628b6e"/><path d="m256 144.981 11.761 23.519a13.149 13.149 0 0 1 -2.463 15.179 13.15 13.15 0 0 1 -18.6 0 13.149 13.149 0 0 1 -2.463-15.179z" fill="#8f563b"/><path d="m136 320.98-3.08 7.39a8.075 8.075 0 0 1 -2.58-1.73l-40-40a8 8 0 0 1 11.32-11.32l33.36 33.36z" fill="#628b6e"/><path d="m132.18 330.16-6.08 14.59a8 8 0 0 1 -2.22-.91l-40-24a8 8 0 0 1 8.24-13.72l40 24c.02.01.04.03.06.04z" fill="#628b6e"/><path d="m476.28 434.044-48.3 13.8a4 4 0 0 1 -4.98-2.875l-7-27.988 56-16 7.062 28.247a4 4 0 0 1 -2.782 4.816z" fill="#628b6e"/><path d="m421.66 286.64-40 40a8.075 8.075 0 0 1 -2.58 1.73l-3.08-7.39.98-12.3 33.36-33.36a8 8 0 0 1 11.32 11.32z" fill="#628b6e"/><path d="m428.12 319.84-40 24a8 8 0 0 1 -2.22.91l-6.08-14.59c.02-.01.04-.03.06-.04l40-24a8 8 0 0 1 8.24 13.72z" fill="#628b6e"/><circle cx="328" cy="200.981" fill="#f3af3e" r="24"/><path d="m96 208.98-8 32-37.75 6.29a453.4 453.4 0 0 1 21.96-50.19z" fill="#f3af3e"/><path d="m160 320.981 40-48 16 16-8 32-32 16z" fill="#628b6e"/></g></svg>