<svg height='100px' width='100px'  fill="#000000" xmlns="http://www.w3.org/2000/svg" xmlns:xlink="http://www.w3.org/1999/xlink" version="1.1" x="0px" y="0px" viewBox="0 0 100 100" enable-background="new 0 0 100 100" xml:space="preserve"><g display="none"><rect x="-1009.245" y="-154.243" display="inline" fill="#000000" width="1329.133" height="1263.126"></rect></g><g><path d="M40.442,26.308V15.406c0-0.884-0.717-1.6-1.6-1.6s-1.6,0.716-1.6,1.6v10.902c0,0.884,0.717,1.6,1.6,1.6   S40.442,27.192,40.442,26.308z"></path><path d="M11.237,44.611h10.902c0.883,0,1.6-0.716,1.6-1.6c0-0.884-0.717-1.6-1.6-1.6H11.237c-0.883,0-1.6,0.716-1.6,1.6   C9.637,43.895,10.353,44.611,11.237,44.611z"></path><path d="M27.03,32.8c0.409,0,0.819-0.156,1.131-0.469c0.625-0.624,0.625-1.637,0-2.262l-7.708-7.709   c-0.625-0.625-1.637-0.625-2.262,0c-0.625,0.624-0.625,1.637,0,2.262l7.708,7.709C26.212,32.644,26.621,32.8,27.03,32.8z"></path><path d="M58.098,27.338c0.54,0,1.072,0.045,1.6,0.113v-0.072V5h-3.2v22.378v0.072C57.026,27.383,57.558,27.338,58.098,27.338z"></path><path d="M43.385,46.138h13.113v-15.45C51.02,31.678,46.192,37.679,43.385,46.138z"></path><path d="M68.739,93.341c6.347-2.221,11.792-6.369,15.638-11.741h-8.79C73.887,86.418,71.54,90.445,68.739,93.341z"></path><path d="M56.498,95V81.6H44.127C47,88.967,51.474,94.092,56.498,95z"></path><path d="M56.498,78.4V64.444h-15.67c0.138,5.008,0.924,9.754,2.195,13.956H56.498z"></path><path d="M47.457,32.347c-7.135,2.497-13.137,7.423-17,13.791h9.485C41.668,40.408,44.267,35.644,47.457,32.347z"></path><path d="M56.498,61.244V49.338H42.453c-0.934,3.672-1.509,7.697-1.625,11.906H56.498z"></path><path d="M39.093,49.338H28.762c-1.69,3.655-2.722,7.673-2.929,11.906h11.795C37.731,57.025,38.242,53.021,39.093,49.338z"></path><path d="M72.811,46.138c-2.808-8.458-7.635-14.46-13.113-15.45v15.45H72.811z"></path><path d="M39.606,78.4c-1.162-4.227-1.855-8.942-1.978-13.956H25.832c0.247,5.04,1.656,9.778,3.962,13.956H39.606z"></path><path d="M85.739,46.138c-3.863-6.367-9.866-11.294-17-13.791c3.19,3.297,5.789,8.061,7.516,13.791H85.739z"></path><path d="M31.819,81.6c3.845,5.372,9.291,9.52,15.638,11.741c-2.801-2.896-5.148-6.922-6.848-11.741H31.819z"></path><path d="M72.069,81.6H59.698V95C64.721,94.092,69.195,88.967,72.069,81.6z"></path><path d="M73.743,49.338H59.698v11.906h15.67C75.252,57.034,74.677,53.01,73.743,49.338z"></path><path d="M76.59,78.4h9.811c2.305-4.178,3.715-8.916,3.962-13.956H78.568C78.445,69.458,77.752,74.173,76.59,78.4z"></path><path d="M59.698,64.444V78.4h13.475c1.271-4.201,2.056-8.948,2.195-13.956H59.698z"></path><path d="M87.434,49.338H77.103c0.851,3.683,1.361,7.687,1.465,11.906h11.796C90.156,57.011,89.123,52.993,87.434,49.338z"></path></g></svg>