<svg height='100px' width='100px'  fill="#ffffff" xmlns="http://www.w3.org/2000/svg" xmlns:xlink="http://www.w3.org/1999/xlink" version="1.1" x="0px" y="0px" viewBox="0 0 512 512" enable-background="new 0 0 512 512" xml:space="preserve"><g><path d="M427.1,392H84.9l3.51-10.53c8.487-25.46,9.98-61.323,11.561-99.293c2.084-50.057,4.446-106.794,24.208-150.191   C147.463,80.855,190.582,56,256,56s108.537,24.855,131.82,75.985c19.762,43.397,22.125,100.134,24.208,150.191   c1.581,37.97,3.074,73.833,11.561,99.293L427.1,392z M106.634,376h298.731c-6.533-26.141-7.893-58.812-9.323-93.157   c-2.122-50.969-4.316-103.672-22.783-144.227c-9.704-21.31-22.905-36.987-40.356-47.929C313.125,78.287,287.251,72,256,72   s-57.125,6.287-76.903,18.688c-17.451,10.941-30.652,26.619-40.356,47.929c-18.467,40.554-20.662,93.258-22.783,144.227   C114.527,317.188,113.167,349.859,106.634,376z"></path></g><g><path d="M256,456c-22.056,0-40-17.944-40-40v-32h16v32c0,13.233,10.767,24,24,24s24-10.767,24-24v-32h16v32   C296,438.056,278.056,456,256,456z"></path></g></svg>