<svg fill="#FFFFFF" xmlns="http://www.w3.org/2000/svg" xmlns:xlink="http://www.w3.org/1999/xlink" version="1.1" x="0px" y="0px" viewBox="0 0 50 50" style="enable-background:new 0 0 50 50;" xml:space="preserve"><g><g><path d="M25.5,2C33,2,39.1,7.6,39.9,15c0,0.5,0.1,1,0.1,1.4c0,1.1-0.2,2.3-0.5,3.5l0,0l0,0c-0.6,2.9-1.9,6.4-3.8,10.2    c-3.2,6.5-7.5,12.7-10.2,16.3c-2.7-3.7-7-9.9-10.2-16.4c-2.3-4.7-3.7-8.7-4-12.1l0-0.1l0-0.2c0-0.5-0.1-0.9-0.1-1.4    C11.1,8.5,17.6,2,25.5,2 M25.5,0C16.5,0,9.1,7.4,9.1,16.4c0,0.5,0,1,0.1,1.6c0,0.1,0,0.2,0,0.3c0.4,3.9,2.1,8.4,4.2,12.7    c4,8.1,9.6,15.8,12,18.9c2.3-3,8-10.6,12-18.7c1.8-3.6,3.3-7.3,4-10.7c0.3-1.3,0.5-2.6,0.5-4c0-0.6,0-1.1-0.1-1.6    C41,6.5,34,0,25.5,0L25.5,0z"></path></g><g><path d="M25.5,8.4c4,0,7.3,3.3,7.3,7.3S29.5,23,25.5,23s-7.3-3.3-7.3-7.3S21.4,8.4,25.5,8.4 M25.5,6.4c-5.2,0-9.3,4.2-9.3,9.3    c0,5.2,4.2,9.3,9.3,9.3s9.3-4.2,9.3-9.3C34.8,10.5,30.6,6.4,25.5,6.4L25.5,6.4z"></path></g></g></svg>