<svg fill="#666666" xmlns="http://www.w3.org/2000/svg" xmlns:xlink="http://www.w3.org/1999/xlink" version="1.1" x="0px" y="0px" viewBox="0 0 100 100" style="enable-background:new 0 0 100 100;" xml:space="preserve"><path d="M94.9,34.4c-1.7-4.8-4.1-9.3-7.3-13.4c-3.1-4-6.8-7.5-11-10.3c-3.4-2.3-7.1-4.1-10.9-5.5c-1.6-0.6-3.4,0.4-3.8,2v0  c-0.4,1.5,0.4,3.1,1.9,3.6C80.3,16.6,91.6,32.3,91.6,50c0,22.9-18.6,41.6-41.6,41.6S8.4,72.9,8.4,50c0-16.1,9.4-30.7,23.8-37.5v10.8  c0,1.6,1.3,3,3,3h0c1.6,0,3-1.3,3-3V5.5c0-1.6-1.3-3-3-3H17.3c-1.6,0-3,1.3-3,3v0c0,1.6,1.3,3,3,3h9.8c-2,1.1-3.8,2.3-5.7,3.7  c-3.8,2.9-7.2,6.3-10,10.2C5.6,30.4,2.5,40,2.5,50c0,6.4,1.3,12.6,3.7,18.5c2.4,5.7,5.8,10.7,10.2,15.1c4.4,4.4,9.4,7.8,15.1,10.2  c5.9,2.5,12.1,3.7,18.5,3.7s12.6-1.3,18.5-3.7c5.7-2.4,10.7-5.8,15.1-10.2c4.4-4.4,7.8-9.4,10.2-15.1c2.5-5.9,3.7-12.1,3.7-18.5  C97.5,44.7,96.6,39.4,94.9,34.4z"></path></svg>