<svg fill="#FFFFFF" xmlns="http://www.w3.org/2000/svg" viewBox="0 0 100 100" x="0px" y="0px"><title>Creator Icon_21</title><path d="M85.09668,26.49121H79.52344V23.02686a1,1,0,0,0-2,0v3.46436H72V23.02686a1,1,0,0,0-2,0v3.46436H64.47656V23.02686a1,1,0,0,0-2,0v3.46436H56.95313V23.02686a1,1,0,0,0-2,0v3.46436H49.42969V23.02686a1,1,0,0,0-2,0v3.46436H41.90527V23.02686a1,1,0,0,0-2,0v3.46436H34.38184V23.02686a1,1,0,0,0-2,0v3.46436H27.30566a.99974.99974,0,0,0-1,1V47.70557a1,1,0,0,0,2,0V40.02441h55.791V74.60889h-40.792a1,1,0,0,0,0,2h41.792a.99974.99974,0,0,0,1-1V27.49121A.99974.99974,0,0,0,85.09668,26.49121Zm-56.791,11.5332v-9.5332h4.07617V32.2041a1,1,0,0,0,2,0V28.49121h5.52344V32.2041a1,1,0,0,0,2,0V28.49121h5.52441V32.2041a1,1,0,0,0,2,0V28.49121h5.52344V32.2041a1,1,0,0,0,2,0V28.49121h5.52344V32.2041a1,1,0,0,0,2,0V28.49121H70V32.2041a1,1,0,0,0,2,0V28.49121h5.52344V32.2041a1,1,0,0,0,2,0V28.49121h4.57324v9.5332Z"></path><path d="M26.18945,77.97314A12.2854,12.2854,0,1,0,13.90332,65.688,12.29893,12.29893,0,0,0,26.18945,77.97314Zm0-22.5708A10.2854,10.2854,0,1,1,15.90332,65.688,10.29737,10.29737,0,0,1,26.18945,55.40234Z"></path><path d="M26.18945,66.688h5.208a1,1,0,1,0,0-2h-4.208V60.479a1,1,0,0,0-2,0v5.209A.99974.99974,0,0,0,26.18945,66.688Z"></path></svg>