<svg fill="#FFFFFF" xmlns="http://www.w3.org/2000/svg" xmlns:xlink="http://www.w3.org/1999/xlink" version="1.1" x="0px" y="0px" viewBox="0 0 50 50" style="enable-background:new 0 0 50 50;" xml:space="preserve"><g><g><path d="M18.5,1.9C27.6,1.9,35,9.3,35,18.4s-7.4,16.5-16.5,16.5C9.4,34.9,2,27.5,2,18.4S9.4,1.9,18.5,1.9 M18.5-0.1    C8.3-0.1,0,8.2,0,18.4c0,10.2,8.3,18.5,18.5,18.5c10.2,0,18.5-8.3,18.5-18.5C37,8.2,28.7-0.1,18.5-0.1L18.5-0.1z"></path></g><g><rect x="39.3" y="26.9" transform="matrix(0.7085 -0.7057 0.7057 0.7085 -16.8806 40.3061)" width="2" height="27.4"></rect></g></g></svg>