<svg fill="#FFFFFF" xmlns:dc="http://purl.org/dc/elements/1.1/" xmlns:cc="http://creativecommons.org/ns#" xmlns:rdf="http://www.w3.org/1999/02/22-rdf-syntax-ns#" xmlns:svg="http://www.w3.org/2000/svg" xmlns="http://www.w3.org/2000/svg" xmlns:sodipodi="http://sodipodi.sourceforge.net/DTD/sodipodi-0.dtd" xmlns:inkscape="http://www.inkscape.org/namespaces/inkscape" version="1.1" x="0px" y="0px" viewBox="0 0 100 100"><g transform="translate(0,-952.36218)"><path style="font-size:medium;font-style:normal;font-variant:normal;font-weight:normal;font-stretch:normal;text-indent:0;text-align:start;text-decoration:none;line-height:normal;letter-spacing:normal;word-spacing:normal;text-transform:none;direction:ltr;block-progression:tb;writing-mode:lr-tb;text-anchor:start;baseline-shift:baseline;opacity:1;color:#000000;fill:#FFFFFF;fill-opacity:1;stroke:none;stroke-width:2;marker:none;visibility:visible;display:inline;overflow:visible;enable-background:accumulate;font-family:Sans;-inkscape-font-specification:Sans" d="M 40 6.96875 C 21.786448 6.96875 6.96875 21.78645 6.96875 40 C 6.96875 58.21352 21.786448 73.03125 40 73.03125 C 48.751097 73.03125 56.711817 69.602659 62.625 64.03125 L 70.59375 72 L 67.28125 75.3125 A 1.0001 1.0001 0 0 0 67.28125 76.71875 L 83.28125 92.71875 A 1.0001 1.0001 0 0 0 84.6875 92.71875 L 92.71875 84.6875 A 1.0001 1.0001 0 0 0 92.71875 83.28125 L 76.71875 67.28125 A 1.0001 1.0001 0 0 0 75.4375 67.15625 A 1.0001 1.0001 0 0 0 75.3125 67.28125 L 72 70.5625 L 64.03125 62.59375 C 69.593484 56.682239 73.03125 48.742964 73.03125 40 C 73.03125 21.78645 58.213552 6.96875 40 6.96875 z M 40 9.03125 C 57.132673 9.03125 70.96875 22.86733 70.96875 40 C 70.96875 57.13272 57.132673 70.96875 40 70.96875 C 22.867327 70.96875 9.03125 57.13272 9.03125 40 C 9.03125 22.86733 22.867327 9.03125 40 9.03125 z M 76 69.40625 L 90.59375 84 L 84 90.59375 L 69.40625 76 L 76 69.40625 z " transform="translate(0,952.36218)"></path></g></svg>