<svg height='100px' width='100px'  fill="#000000" xmlns="http://www.w3.org/2000/svg" xmlns:xlink="http://www.w3.org/1999/xlink" version="1.1" x="0px" y="0px" viewBox="0 0 32 32" enable-background="new 0 0 32 32" xml:space="preserve"><path d="M24.699,9.162C24.68,8.901,24.461,8.7,24.2,8.7h-3.45V7.5c0-2.619-2.131-4.75-4.75-4.75s-4.75,2.131-4.75,4.75v1.2H7.8  c-0.261,0-0.479,0.201-0.499,0.461l-1.3,16.8C5.99,26.1,6.038,26.236,6.133,26.34C6.227,26.441,6.36,26.5,6.5,26.5h19  c0.139,0,0.271-0.059,0.367-0.16c0.095-0.104,0.143-0.24,0.132-0.378L24.699,9.162z M12.75,7.5c0-1.792,1.458-3.25,3.25-3.25  s3.25,1.458,3.25,3.25v1.2h-6.5V7.5z M20.75,11.95c0,2.619-2.131,4.75-4.75,4.75s-4.75-2.131-4.75-4.75V11.5  c0-0.414,0.336-0.75,0.75-0.75s0.75,0.336,0.75,0.75v0.45c0,1.792,1.458,3.25,3.25,3.25s3.25-1.458,3.25-3.25V11.5  c0-0.414,0.336-0.75,0.75-0.75s0.75,0.336,0.75,0.75V11.95z"></path></svg>