<svg height="512" viewBox="0 0 512 512" width="512" xmlns="http://www.w3.org/2000/svg"><g id="flat"><path d="m400 104-16 184v158a10 10 0 0 1 -10 10h-236a10 10 0 0 1 -10-10v-158l-16-184 48.87-20.36 14.81-6.17 32.32-13.47h88l39.46 15.18 15.01 5.77z" fill="#ea9d2d"/><path d="m144 456h224v32h-224z" fill="#c38325"/><path d="m312 64-13.437 23.036a50.321 50.321 0 0 1 -43.463 24.964 50.319 50.319 0 0 1 -45.007-27.815l-10.093-20.185a40 40 0 0 1 40-40h32a40 40 0 0 1 40 40z" fill="#c38325"/><path d="m256 83.173a32.039 32.039 0 0 1 -32-32.018v-3.155h16v3.155a16 16 0 1 0 32 0v-3.155h16v3.155a32.039 32.039 0 0 1 -32 32.018z" fill="#a46e1f"/><path d="m184 112-32 40 32 40 32-40z" fill="#c38325"/><path d="m184 192-32 40 32 40 32-40z" fill="#c38325"/><path d="m184 272-32 40 32 40 32-40z" fill="#c38325"/><path d="m184 352-32 40 32 40 32-40z" fill="#c38325"/><path d="m176 416h16v40h-16z" fill="#c38325"/><path d="m144 448 40-32-24-32-40.301 29.841.301 2.159z" fill="#aa7220"/><path d="m487.5 339.787-15.5 116.213h-56l-8-96-21-111 5.27-58.78 3.02-33.66 4.71-52.56 48 72 39.073 156.293a19.977 19.977 0 0 1 .427 7.494z" fill="#c38325"/><path d="m416 456h56v32h-56z" fill="#aa7220"/><g fill="#c38325"><path d="m192 128h-16a60.032 60.032 0 0 0 -6.31-26.73l-8.82-17.63 14.81-6.17 8.32 16.64a76.236 76.236 0 0 1 8 33.89z"/><path d="m328 112 32 40-32 40-32-40z"/><path d="m328 192 32 40-32 40-32-40z"/><path d="m328 272 32 40-32 40-32-40z"/><path d="m328 352 32 40-32 40-32-40z"/><path d="m350.47 84.95-8.16 16.32a60.032 60.032 0 0 0 -6.31 26.73h-16a76.236 76.236 0 0 1 8-33.89l7.46-14.93z"/><path d="m320 413.841h16v42.159h-16z"/><path d="m247.549 104.999h16v351.001h-16z" transform="matrix(1 -.003 .003 1 -.719 .657)"/></g><path d="m168 456h16v32h-16z" fill="#da922a"/><path d="m200 456h16v32h-16z" fill="#da922a"/><path d="m232 456h16v32h-16z" fill="#da922a"/><path d="m328 456h16v32h-16z" fill="#da922a"/><path d="m296 456h16v32h-16z" fill="#da922a"/><path d="m264 456h16v32h-16z" fill="#da922a"/><path d="m455.99 456.62-15.98-.24-.02-.38-6.3-132.42a201.28 201.28 0 0 0 -14.2-65.32l-27.22-68.04 3.38-36.191 3.84 11.151 34.85 87.14a217.153 217.153 0 0 1 15.33 70.49z" fill="#aa7220"/><path d="m128 319v-31l-4.627-53.205-19.373 45.205z" fill="none"/><path d="m128 324.571v-36.571l-4.627-53.205-19.373 45.205z" fill="none"/><path d="m104 280 19.373-45.2-11.373-130.8-48 72-36.691 117.412a20 20 0 0 0 3.921 19l88.7 103.218 40.07-31.63z" fill="#c38325"/><path d="m150.66 403.56-13.32 8.88-.92-1.37-8.42-12.63-58.54-87.83a50.052 50.052 0 0 1 -5-45.86l48.04-123.54 2.2-6.17 3.17 36.52-38.5 98.99a34.033 34.033 0 0 0 3.4 31.18l45.23 67.84 20.67 31z" fill="#aa7220"/></g></svg>