<svg xmlns="http://www.w3.org/2000/svg" height="590.459pt" version="1.1" viewBox="0 0 590.459 590.459" width="590.459pt">
<g id="surface1">
<path d="M 35.601562 325.515625 L 15.480469 457.757812 L 254.644531 457.757812 L 285.507812 325.515625 Z M 35.601562 325.515625 " style=" stroke:none;fill-rule:nonzero;fill:rgb(98.039216%,70.196078%,28.627451%);fill-opacity:1;" />
<path d="M 71.207031 0 L 518.792969 0 L 518.792969 91.550781 L 71.207031 91.550781 Z M 71.207031 0 " style=" stroke:none;fill-rule:nonzero;fill:rgb(38.039216%,74.117647%,78.039216%);fill-opacity:1;" />
<path d="M 0 559.484375 L 223.792969 590 L 254.644531 457.757812 L 15.480469 457.757812 Z M 0 559.484375 " style=" stroke:none;fill-rule:nonzero;fill:rgb(38.039216%,74.117647%,78.039216%);fill-opacity:1;" />
<path d="M 518.792969 91.550781 L 71.207031 91.550781 L 55.726562 193.277344 L 534.273438 193.277344 Z M 518.792969 91.550781 " style=" stroke:none;fill-rule:nonzero;fill:rgb(60%,36.078431%,19.607843%);fill-opacity:1;" />
<path d="M 534.273438 193.277344 L 55.726562 193.277344 L 35.601562 325.515625 L 285.507812 325.515625 L 295 284.828125 L 304.492188 325.515625 L 554.398438 325.515625 Z M 534.273438 193.277344 " style=" stroke:none;fill-rule:nonzero;fill:rgb(92.941176%,35.294118%,17.647059%);fill-opacity:1;" />
<path d="M 335.355469 457.757812 L 366.207031 590 L 590 559.484375 L 574.519531 457.757812 Z M 335.355469 457.757812 " style=" stroke:none;fill-rule:nonzero;fill:rgb(38.039216%,74.117647%,78.039216%);fill-opacity:1;" />
<path d="M 554.398438 325.515625 L 304.492188 325.515625 L 335.355469 457.757812 L 574.519531 457.757812 Z M 554.398438 325.515625 " style=" stroke:none;fill-rule:nonzero;fill:rgb(98.039216%,70.196078%,28.627451%);fill-opacity:1;" />
<path d="M 6.0625 519.625 L 233.578125 548.070312 L 238.226562 528.152344 L 9.125 499.507812 Z M 6.0625 519.625 " style=" stroke:none;fill-rule:nonzero;fill:rgb(41.176471%,80%,84.313725%);fill-opacity:1;" />
<path d="M 580.875 499.507812 L 351.773438 528.152344 L 356.421875 548.070312 L 583.9375 519.625 Z M 580.875 499.507812 " style=" stroke:none;fill-rule:nonzero;fill:rgb(41.176471%,80%,84.313725%);fill-opacity:1;" />
<path d="M 335.355469 457.757812 L 366.207031 590 L 590 559.484375 L 574.519531 457.757812 Z M 335.355469 457.757812 " style=" stroke:none;fill-rule:nonzero;fill:rgb(30.588235%,67.45098%,70.980392%);fill-opacity:1;" />
<path d="M 554.398438 325.515625 L 304.492188 325.515625 L 335.355469 457.757812 L 574.519531 457.757812 Z M 554.398438 325.515625 " style=" stroke:none;fill-rule:nonzero;fill:rgb(94.901961%,63.921569%,17.254902%);fill-opacity:1;" />
<path d="M 580.875 499.507812 L 351.773438 528.152344 L 356.421875 548.070312 L 583.9375 519.625 Z M 580.875 499.507812 " style=" stroke:none;fill-rule:nonzero;fill:rgb(41.176471%,80%,84.313725%);fill-opacity:1;" />
<path d="M 534.273438 193.277344 L 518.792969 91.550781 L 394.179688 91.550781 L 292.457031 193.277344 Z M 534.273438 193.277344 " style=" stroke:none;fill-rule:nonzero;fill:rgb(54.117647%,32.54902%,17.647059%);fill-opacity:1;" />
<path d="M 292.457031 193.277344 L 160.214844 325.515625 L 285.507812 325.515625 L 295 284.828125 L 304.492188 325.515625 L 554.398438 325.515625 L 534.273438 193.277344 Z M 292.457031 193.277344 " style=" stroke:none;fill-rule:nonzero;fill:rgb(87.843137%,30.588235%,17.647059%);fill-opacity:1;" />
<path d="M 447.585938 0 L 518.792969 0 L 518.792969 91.550781 L 447.585938 91.550781 Z M 447.585938 0 " style=" stroke:none;fill-rule:nonzero;fill:rgb(30.588235%,67.45098%,70.980392%);fill-opacity:1;" />
<path d="M 254.308594 30.515625 L 274.65625 30.515625 L 274.65625 233.964844 L 254.308594 233.964844 Z M 254.308594 30.515625 " style=" stroke:none;fill-rule:nonzero;fill:rgb(94.117647%,92.54902%,91.372549%);fill-opacity:1;" />
<path d="M 305.171875 30.515625 L 325.519531 30.515625 L 325.519531 233.964844 L 305.171875 233.964844 Z M 305.171875 30.515625 " style=" stroke:none;fill-rule:nonzero;fill:rgb(94.117647%,92.54902%,91.372549%);fill-opacity:1;" />
</g>
</svg>