<svg enable-background="new 0 0 100 100" fill="#fff" viewBox="0 0 100 100" xmlns="http://www.w3.org/2000/svg"><path d="m10.9990234 79.9243164h29v9.0756836c0 .5522461.4472656 1 1 1h48c.5527344 0 1-.4477539 1-1v-67.9243164c0-.5522461-.4472656-1-1-1h-29v-9.0756836c0-.5522461-.4472656-1-1-1h-48c-.5527344 0-1 .4477539-1 1v67.9243164c0 .5522461.4472657 1 1 1zm44.1481934 0-13.1481934 7.3195801v-7.3195801zm12.2941894 8.0756836c.0413818-.3040771.0991211-.6913452.1787109-1.1542969.09375-.5444336-.2714844-1.0615234-.8154297-1.1552734-.5429688-.097168-1.0615234.2709961-1.1552734.8154297-.109497.635376-.1809081 1.1405029-.2255859 1.4941406h-20.6721191l14.7336426-8.2021484c.0386963-.0215454.0622559-.0571289.0969238-.0828247.057373-.0423584.1125488-.0828857.1595459-.1362915.0423584-.0480347.0723877-.1004028.1043701-.1548462.0328369-.055481.0646973-.1085205.0864258-.1702271.0234375-.06604.0316162-.1328735.0407715-.2023926.0057373-.043457.0256348-.0819092.0256348-.1269531v-45.4165649c1.0175781.3717651 2.8044434 1.2037354 4.84375 2.9605103 2.9326172 2.5263672 6.9902344 7.5268555 9.6621094 16.9990234 4.9816895 17.6556396 12.0906982 21.882019 13.4941406 22.5620117v11.9707031zm20.5576172-65.9243164v51.6176758c-1.5717773-1.1029053-4.8193359-4.0379639-8.0136719-10.9456787.428833-.4077148.8681641-.8106689 1.3261719-1.2047119.4189453-.3598633.4658203-.9912109.1054688-1.4101562-.3603516-.4204102-.9941406-.465332-1.4101562-.1054688-.2988281.2570801-.5786133.5234375-.8659668.7863159-.9361572-2.2515869-1.8547363-4.8572388-2.7102051-7.8893433-4.8570557-17.2127075-14.1032715-20.8660278-16.4316406-21.5258789v-9.3227539zm-76-10.0756836h46v65.9243164h-46z"/><path d="m83.8300781 59.3505859c.1943359 0 .3916016-.0566406.5634766-.1748047.5283203-.3613281 1.0722656-.7124023 1.6337891-1.0527344.4726562-.2861327.6240234-.9008788.3378906-1.3735351s-.9033203-.6225586-1.3730469-.3374023c-.5947266.3598633-1.1699219.7314453-1.7275391 1.1132812-.4560547.3120117-.5722656.934082-.2607422 1.3901367.1933594.2827149.506836.4350586.8261719.4350586z"/><path d="m73.4628906 69.0556641c-.4726562-.2910156-1.0869141-.1445312-1.3759766.3261719-.3642578.5893555-.7089844 1.1791992-1.0351562 1.7666016-.2675781.4829102-.0927734 1.0917969.3896484 1.359375.1542969.0854492.3203125.1254883.484375.1254883.3515625 0 .6933594-.1855469.8759766-.5151367.3105469-.5610352.6396484-1.1235352.9863281-1.6865234.2900391-.4697267.1445313-1.0859377-.3251953-1.3759767z"/><path d="m68.3330078 79.8798828c-.5283203-.1640625-1.0869141.1342773-1.25.6616211-.2109375.6865234-.3964844 1.3442383-.5595703 1.9658203-.140625.5341797.1787109 1.0810547.7128906 1.2216797.0849609.0224609.1699219.0332031.2548828.0332031.4433594 0 .8486328-.2973633.9658203-.7460938.1572266-.597168.3349609-1.2275391.5380859-1.8867188.1621095-.5278319-.133789-1.0874022-.6621093-1.2495116z"/><path d="m75.6816406 64.4003906c-.4453125.5288086-.8720703 1.0629883-1.28125 1.6015625-.3339844.4399414-.2480469 1.0668945.1923828 1.4008789.1806641.137207.3925781.2036133.6035156.2036133.3027344 0 .6005859-.1362305.7978516-.3955078.3876953-.5112305.7929688-1.019043 1.2167969-1.5205078.3554688-.4223633.3027344-1.0532227-.1201172-1.4091797-.4238281-.3579102-1.0527344-.3022461-1.4091797.1191406z"/><path d="m70.546875 74.2998047c-.5068359-.2236328-1.0957031.0048828-1.3203125.5083008-.2822266.6367188-.546875 1.2646484-.7919922 1.8813477-.203125.5131836.046875 1.0942383.5605469 1.2983398.1210938.0483398.2460938.0712891.3691406.0712891.3974609 0 .7734375-.2392578.9296875-.6313477.2353516-.5922852.4882812-1.1958008.7607422-1.8081055.2236328-.5048828-.0039063-1.0957031-.5078125-1.3198242z"/><path d="m34.9492188 20.8496094c-9.4677734 0-17.1699219 7.7236328-17.1699219 17.2177734 0 13.0571289 15.7734375 29.8061523 16.4453125 30.5126953.1884766.1987305.4501953.3110352.7246094.3110352h.0097656c.2773437-.0029297.5410156-.1206055.7285156-.3251953.6708984-.734375 16.4326172-18.125 16.4326172-30.4985352 0-9.4941406-7.703125-17.2177734-17.1708984-17.2177734zm-.0126954 45.5449218c-3.1337891-3.496582-15.1572266-17.6123047-15.1572266-28.3271484 0-8.3911133 6.8056641-15.2177734 15.1699219-15.2177734 8.3652344 0 15.1708984 6.8266602 15.1708984 15.2177734.0000001 10.152832-12.0693359 24.7338867-15.1835937 28.3271484z"/><path d="m34.9990234 27.3393555c-5.1347656 0-9.3115234 4.1772461-9.3115234 9.3115234s4.1767578 9.3115234 9.3115234 9.3115234 9.3115234-4.1772461 9.3115234-9.3115234-4.1767577-9.3115234-9.3115234-9.3115234zm0 16.6230468c-4.03125 0-7.3115234-3.2797852-7.3115234-7.3115234s3.2802734-7.3115234 7.3115234-7.3115234 7.3115234 3.2797852 7.3115234 7.3115234-3.2802734 7.3115234-7.3115234 7.3115234z"/></svg>