<svg fill="#FFFFFF" xmlns="http://www.w3.org/2000/svg" xmlns:xlink="http://www.w3.org/1999/xlink" version="1.1" x="0px" y="0px" viewBox="0 0 100 100" style="enable-background:new 0 0 100 100;" xml:space="preserve"><path d="M57.2,8.2H44.8c-2.9,0-5.2,2.4-5.2,5.2v2.4h-2.1h-6.7c-3.9,0-7.1,3.2-7.1,7.1v57.9c0,3.9,3.2,7.1,7.1,7.1H33v2.8  c0,0.6,0.4,1,1,1s1-0.4,1-1v-2.8h31.3v2.8c0,0.6,0.4,1,1,1s1-0.4,1-1v-2.8h2.8c3.9,0,7.1-3.2,7.1-7.1V22.9c0-3.9-3.2-7.1-7.1-7.1  h-8.7v-2.4C62.5,10.5,60.1,8.2,57.2,8.2z M41.6,13.4c0-1.8,1.5-3.2,3.2-3.2h12.4c1.8,0,3.2,1.5,3.2,3.2v2.4h-14h-4.9V13.4z   M38.5,17.8h7v18.9h-7V17.8z M71.2,17.8c2.8,0,5.1,2.3,5.1,5.1v57.9c0,2.8-2.3,5.1-5.1,5.1H30.8c-2.8,0-5.1-2.3-5.1-5.1V22.9  c0-2.8,2.3-5.1,5.1-5.1h5.7v19.9c0,0.6,0.4,1,1,1h3.7v39.4c0,0.6,0.4,1,1,1s1-0.4,1-1V38.7h3.3c0.6,0,1-0.4,1-1V17.8H71.2z"></path><path d="M68.3,79.1c0.6,0,1-0.4,1-1V25.5c0-0.6-0.4-1-1-1s-1,0.4-1,1v52.6C67.3,78.6,67.7,79.1,68.3,79.1z"></path><path d="M59.6,79.1c0.6,0,1-0.4,1-1V25.5c0-0.6-0.4-1-1-1s-1,0.4-1,1v52.6C58.6,78.6,59,79.1,59.6,79.1z"></path><path d="M50.9,79.1c0.6,0,1-0.4,1-1V25.5c0-0.6-0.4-1-1-1s-1,0.4-1,1v52.6C49.9,78.6,50.3,79.1,50.9,79.1z"></path><path d="M33.5,24.5c-0.6,0-1,0.4-1,1v52.6c0,0.6,0.4,1,1,1s1-0.4,1-1V25.5C34.5,25,34,24.5,33.5,24.5z"></path></svg>