<svg viewBox="0 0 96 96" xmlns="http://www.w3.org/2000/svg"><g fill="#fff"><path d="m48 0a48 48 0 0 0 -48 48 48 48 0 1 0 48-48zm0 5.42c23.26 0 42.11 19.06 42.11 42.58 0 23.52-18.85 42.58-42.11 42.58s-42.11-19.06-42.11-42.58c0-23.52 18.85-42.58 42.11-42.58z"/><path d="m74.12 72.69a9.66 9.66 0 1 0 -1.41 1.41l4.63 4.64a1 1 0 1 0 1.41-1.42zm-12.87-.69a7.63 7.63 0 1 1 10.75 0 7.64 7.64 0 0 1 -10.79 0z"/><path d="m73.58 30.4a31 31 0 0 0 -49.61-2 .87.87 0 0 0 -.11.18 30.69 30.69 0 0 0 -6.86 19.42 29.76 29.76 0 0 0 2 11.06.68.68 0 0 0 .08.24c.06.11.12.32.24.6a1.15 1.15 0 0 0 .12.25 31.63 31.63 0 0 0 11.16 13.57l.13.09a30.93 30.93 0 0 0 17.27 5.24 27.94 27.94 0 0 0 4.61-.37 1 1 0 1 0 -.33-2 26 26 0 0 1 -4.28.35 28.91 28.91 0 0 1 -14.84-4.03l3.84-2.32a9.74 9.74 0 0 0 4.7-7.39l.3-2.84a5.68 5.68 0 0 0 0-.59 5.77 5.77 0 0 0 -5.78-5.76h-2.22a3.76 3.76 0 0 1 -2.84-1.28 5.64 5.64 0 0 0 -4.3-2 5.8 5.8 0 0 0 -5.24 3.38l-1.23 2.8a28.22 28.22 0 0 1 -1.39-9 28.71 28.71 0 0 1 5.33-16.67l.49 1.91a4.05 4.05 0 0 0 3.92 3h3.88a4 4 0 0 0 3.59-2.17l1.29-2.46a2 2 0 0 1 3-.73l1.84 1.28a2 2 0 0 1 .43 3 4 4 0 0 0 -.89 2.52 4 4 0 0 0 2.11 3.56l3.01 1.63a2.06 2.06 0 0 1 1 1.39l1.43 7.17a4 4 0 0 0 1.47 2.4 4.15 4.15 0 0 0 2.51.87 4 4 0 0 0 2.72-1.07l4.92-4.5a4 4 0 0 0 1.32-3 2.23 2.23 0 0 0 0-.37l-.45-5v-.16a2.06 2.06 0 0 1 .93-1.72l9.61-6.5a28.92 28.92 0 0 1 4.59 15.62 26 26 0 0 1 -.35 4.28v.21a1 1 0 0 0 2 .09 27.58 27.58 0 0 0 .35-4.58 31 31 0 0 0 -5.46-17.55zm-50.14 24.68a3.85 3.85 0 0 1 1.44-1.64 3.76 3.76 0 0 1 2-.58 3.66 3.66 0 0 1 2.8 1.28 5.79 5.79 0 0 0 4.35 2h2.25a3.76 3.76 0 0 1 3.72 3.72 2.55 2.55 0 0 1 0 .39l-.28 2.84a7.79 7.79 0 0 1 -3.72 5.91l-4.7 2.75a29.68 29.68 0 0 1 -9.9-12.16zm38.31-17.87a4.05 4.05 0 0 0 -1.84 3.39v.36l.45 5a1.09 1.09 0 0 1 0 .18 2 2 0 0 1 -.67 1.51l-4.92 4.5a2 2 0 0 1 -1.37.54 2.11 2.11 0 0 1 -1.28-.44 2 2 0 0 1 -.71-1.25l-1.41-7.13a4 4 0 0 0 -2-2.76l-3.07-1.68a2 2 0 0 1 -1.06-1.8 2 2 0 0 1 .45-1.27 4.1 4.1 0 0 0 .88-2.53 4 4 0 0 0 -1.74-3.33l-1.84-1.28a4.05 4.05 0 0 0 -5.9 1.46l-1.28 2.45a2.05 2.05 0 0 1 -1.82 1.1h-3.93a2.05 2.05 0 0 1 -2-1.53l-.89-3.43a29 29 0 0 1 45.51 1.46z"/></g></svg>